<svg fill="none" height="17" viewBox="0 0 19 17" width="19" xmlns="http://www.w3.org/2000/svg"><path d="m18.4209 9.04735-6.75 6.75005c-.2113.2113-.498.33-.7968.33-.2989 0-.5856-.1187-.7969-.33-.21136-.2114-.33009-.498-.33009-.7969s.11873-.5856.33009-.7969l4.829-4.82718h-13.7812c-.298369 0-.584517-.11853-.795495-.32951-.210979-.21098-.329505-.49713-.329505-.79549 0-.29837.118526-.58452.329505-.7955.210978-.21098.497126-.3295.795495-.3295h13.7812l-4.8271-4.83c-.21138-.21135-.33011-.49799-.33011-.79688s.11873-.58553.33011-.796875c.2113-.211344.498-.330076.7968-.330076.2989 0 .5856.118732.7969.330076l6.75 6.750005c.1049.10465.1881.229.2448.3659s.0858.28365.0856.43183c-.0001.14818-.0296.29486-.0866.43163-.057.13676-.1405.26091-.2457.36532z" fill="currentColor"/></svg>